<?xml version="1.0"?>
<svg width="294.00000000000006" height="370" xmlns="http://www.w3.org/2000/svg" xmlns:svg="http://www.w3.org/2000/svg">
 <title id="title">StewardMesh network S mark</title>
 <desc id="desc">A connected green, teal, and blue network arranged as an S.</desc>
 <!-- A 3-tier triangular lattice. All coordinates use the same 50px grid. -->
 <!-- Nodes are deliberately drawn after the edges, making every join exact. -->
 <g class="layer" display="inline">
  <title>Layer 1</title>
  <g fill="none" stroke-linecap="round" stroke-linejoin="round" stroke-width="4" id="svg_1">
   <!-- upper tier -->
   <g stroke="#46cf51" id="svg_2">
    <line x1="147" y1="25" x2="44" y2="78" id="svg_3"/>
    <line x1="147" y1="25" x2="250" y2="78" id="svg_4"/>
    <line x1="44" y1="78" x2="98" y2="113" id="svg_5"/>
    <line x1="98" y1="113" x2="147" y2="80" id="svg_6"/>
    <line x1="147" y1="80" x2="250" y2="78" id="svg_7"/>
    <line x1="44" y1="78" x2="44" y2="158" id="svg_8"/>
   </g>
   <!-- central tier -->
   <g stroke="#16bfa7" id="svg_9">
    <line x1="44" y1="158" x2="98" y2="113" id="svg_10"/>
    <line x1="44" y1="158" x2="107" y2="147" id="svg_11"/>
    <line x1="44" y1="158" x2="143" y2="223" id="svg_12"/>
    <line x1="98" y1="113" x2="151" y2="142" id="svg_13"/>
    <line x1="107" y1="147" x2="151" y2="142" id="svg_14"/>
    <line x1="107" y1="147" x2="143" y2="223" id="svg_15"/>
    <line x1="151" y1="142" x2="143" y2="223" id="svg_16"/>
    <line x1="151" y1="142" x2="249" y2="202" id="svg_17"/>
    <line x1="143" y1="223" x2="194" y2="213" id="svg_18"/>
    <line x1="143" y1="223" x2="211" y2="266" id="svg_19"/>
    <line x1="194" y1="213" x2="249" y2="202" id="svg_20"/>
    <line x1="194" y1="213" x2="211" y2="266" id="svg_21"/>
    <line x1="249" y1="202" x2="250" y2="289" id="svg_22"/>
   </g>
   <!-- lower tier -->
   <g stroke="#1768ef" id="svg_23">
    <line x1="44" y1="280" x2="145" y2="280" id="svg_24"/>
    <line x1="145" y1="280" x2="250" y2="289" id="svg_25"/>
    <line x1="44" y1="280" x2="145" y2="344" id="svg_26"/>
    <line x1="145" y1="344" x2="250" y2="289" id="svg_27"/>
    <line x1="145" y1="280" x2="210" y2="266" id="svg_28"/>
    <line x1="210" y1="266" x2="250" y2="289" id="svg_29"/>
   </g>
  </g>
  <g fill="#46cf51" id="svg_30">
   <circle cx="147" cy="25" r="15" id="svg_31"/>
   <circle cx="44" cy="78" r="15" id="svg_32"/>
   <circle cx="147" cy="80" r="14" id="svg_33"/>
   <circle cx="250" cy="78" r="15" id="svg_34"/>
   <circle cx="98" cy="113" r="12" id="svg_35"/>
  </g>
  <g fill="#16bfa7" id="svg_36">
   <circle cx="44" cy="158" r="15" id="svg_37"/>
   <circle cx="107" cy="147" r="10" id="svg_38"/>
   <circle cx="151" cy="142" r="15" id="svg_39"/>
   <circle cx="143" cy="223" r="15" id="svg_40"/>
   <circle cx="194" cy="213" r="11" id="svg_41"/>
   <circle cx="249" cy="202" r="15" id="svg_42"/>
  </g>
  <g fill="#1768ef" id="svg_43">
   <circle cx="44" cy="280" r="15" id="svg_44"/>
   <circle cx="145" cy="280" r="12" id="svg_45"/>
   <circle cx="211" cy="266" r="9" id="svg_46"/>
   <circle cx="250" cy="289" r="12" id="svg_47"/>
   <circle cx="145" cy="344" r="15" id="svg_48"/>
  </g>
 </g>
</svg>